<?xml version="1.0" encoding="UTF-8"?>
<svg version="1.1" xmlns="http://www.w3.org/2000/svg" width="1840" height="566">
<path d="M0 0 C1.23830586 3.71491759 0.65495622 4.32632979 -1.03515625 7.74560547 C-1.50791992 8.71394821 -1.98068359 9.68229095 -2.46777344 10.67997742 C-3.25716309 12.25764641 -3.25716309 12.25764641 -4.0625 13.8671875 C-4.86929199 15.50775871 -4.86929199 15.50775871 -5.69238281 17.18147278 C-7.14968065 20.13864351 -8.6158712 23.0910439 -10.0869751 26.0413475 C-11.30514042 28.48782172 -12.51636068 30.93770525 -13.72766113 33.38758373 C-22.28705634 50.69592223 -30.97671968 67.92828651 -40 85 C-40.7234315 86.37419792 -41.4465611 87.74855481 -42.16943359 89.12304688 C-56.10167508 115.6095934 -70.42487819 141.86136516 -85 168 C-85.58539551 169.0509082 -86.17079102 170.10181641 -86.77392578 171.18457031 C-100.02906941 194.97124918 -113.54460231 218.60130602 -127.30419922 242.09960938 C-128.9794468 244.9648471 -130.64893177 247.83335765 -132.31640625 250.703125 C-146.97993439 275.92978078 -161.89051009 301.00945396 -177.10986328 325.90478516 C-178.8278735 328.71813229 -180.5377721 331.53623354 -182.24609375 334.35546875 C-198.61327703 361.23145169 -216.24893466 387.48758637 -236 412 C-236.74636719 412.92941406 -237.49273438 413.85882813 -238.26171875 414.81640625 C-240.48747574 417.56163973 -242.74161231 420.28157037 -245 423 C-245.78632812 423.97324219 -246.57265625 424.94648438 -247.3828125 425.94921875 C-261.22075979 442.81543651 -277.21651518 459.31098828 -295 472 C-295.91007813 472.69351562 -296.82015625 473.38703125 -297.7578125 474.1015625 C-323.66753833 493.66604935 -354.4308979 505.90203358 -387.35253906 501.69970703 C-391.72296407 500.88711024 -395.83987742 499.54311524 -400 498 C-401.12921875 497.59910156 -402.2584375 497.19820312 -403.421875 496.78515625 C-429.66157085 486.54455097 -450.41426993 465.61404318 -470 446.125 C-470.78914795 445.34060547 -471.5782959 444.55621094 -472.39135742 443.74804688 C-477.13239757 438.99339608 -481.64500289 434.10949002 -486 429 C-486.72968994 428.15284424 -486.72968994 428.15284424 -487.47412109 427.28857422 C-488.88215213 425.6537397 -490.28556469 424.01506366 -491.6875 422.375 C-494.80023641 418.7337043 -497.91435455 415.09411282 -501.0546875 411.4765625 C-506.46252009 405.2345989 -511.71729274 398.91187781 -516.78540039 392.390625 C-520.2960123 387.87617496 -523.88240179 383.4290718 -527.5 379 C-531.63456483 373.93471589 -535.72375484 368.83933152 -539.75 363.6875 C-543.62632805 358.72927762 -547.56132461 353.82732011 -551.5625 348.96875 C-553.40447914 346.72531386 -555.23717834 344.47567481 -557.0625 342.21875 C-563.49124012 334.27076833 -569.9805216 326.38555531 -576.62304688 318.61523438 C-578.50578337 316.406691 -580.37397649 314.18597567 -582.24297768 311.96580541 C-583.23634112 310.8007447 -584.24042335 309.64466727 -585.2588796 308.50147688 C-587.95064958 305.47799585 -590.40404874 302.46365677 -592.64015293 299.08672142 C-596.44747159 293.73343755 -600.41404217 289.06572952 -606.88978076 287.14117098 C-614.89074238 285.8414133 -622.97372694 286.00838212 -631.05428827 286.15640235 C-634.73605543 286.20722648 -638.41715651 286.17056749 -642.0990448 286.14532471 C-649.29276879 286.10961306 -656.48387149 286.15334872 -663.67724442 286.22471447 C-672.06083165 286.30489398 -680.44387685 286.30555127 -688.82777859 286.30329458 C-703.78572304 286.30198184 -718.74245813 286.37255038 -733.69995117 286.48388672 C-748.20438026 286.5917893 -762.70780968 286.64833558 -777.21264648 286.64794922 C-778.55430155 286.64792376 -778.55430155 286.64792376 -779.92306077 286.64789779 C-781.26243372 286.64786359 -781.26243372 286.64786359 -782.62886471 286.6478287 C-799.16480191 286.6477394 -815.70032588 286.69364551 -832.23611281 286.76220519 C-838.07696063 286.78544887 -843.91774679 286.79543088 -849.75863457 286.80141068 C-856.87340428 286.8096767 -863.98749537 286.84468057 -871.10195207 286.9127924 C-874.73038891 286.94706079 -878.35799004 286.97045935 -881.98660278 286.9636879 C-885.9208651 286.95682173 -889.85340246 287.0042744 -893.78733826 287.05728149 C-894.93246508 287.0471234 -896.07759189 287.03696531 -897.25741953 287.02649939 C-902.88387143 287.14989532 -906.16688809 287.5011405 -910.26329136 291.55891991 C-911.20684113 292.68032928 -912.13164201 293.81940711 -913 295 C-913 290.81314594 -910.71860606 288.73451161 -908.1875 285.625 C-907.69266113 285.0064917 -907.19782227 284.3879834 -906.68798828 283.75073242 C-902.42831806 278.45545431 -898.0461397 273.26553756 -893.62890625 268.1015625 C-891.1327295 265.175514 -888.72073366 262.18643248 -886.3125 259.1875 C-883.03894793 255.16120601 -879.59185443 251.47915401 -875.87109375 247.8671875 C-874.12259176 246.12233583 -872.52919298 244.32485096 -870.9375 242.4375 C-862.76600361 232.94802032 -853.604311 224.02803095 -844 216 C-843.09765625 215.20851562 -842.1953125 214.41703125 -841.265625 213.6015625 C-822.33083837 197.07066526 -800.97944297 182.08668449 -777 174 C-776.32517578 173.77231934 -775.65035156 173.54463867 -774.95507812 173.31005859 C-744.53294272 163.23220244 -713.67644157 165.52202551 -685.07519531 179.79150391 C-670.51382881 187.31970406 -657.4822385 196.39967967 -645 207 C-644.01845947 207.81315674 -643.03691895 208.62631348 -642.02563477 209.46411133 C-632.79742455 217.16381585 -624.26108073 225.46158692 -615.80200195 233.9921875 C-613.54634308 236.26628902 -611.28259723 238.53209974 -609.01757812 240.796875 C-607.55421247 242.26515171 -606.09130522 243.73388547 -604.62890625 245.203125 C-603.96524551 245.86789856 -603.30158478 246.53267212 -602.61781311 247.21759033 C-598.77140282 251.10264621 -595.10603484 255.09743237 -591.53153992 259.23388672 C-589.78033316 261.2533114 -587.97380609 263.21068495 -586.1328125 265.1484375 C-585.47958008 265.8384082 -584.82634766 266.52837891 -584.15332031 267.23925781 C-583.48397461 267.94405273 -582.81462891 268.64884766 -582.125 269.375 C-577.07519845 274.71547081 -572.07331082 280.08576108 -567.1796875 285.5703125 C-563.06083886 290.16157388 -558.86519826 294.68219096 -554.66845703 299.20214844 C-553.53542811 300.42304761 -552.40363401 301.64509366 -551.27294922 302.86816406 C-543.99995902 310.73074814 -536.6226561 318.4749008 -529.0625 326.0625 C-528.37712158 326.7524707 -527.69174316 327.44244141 -526.9855957 328.15332031 C-523.05203835 332.07495056 -519.00793973 335.8067497 -514.80200195 339.43432617 C-512.49708939 341.43695512 -510.28513865 343.53179954 -508.0625 345.625 C-501.41161248 351.68633517 -494.29116994 357.08797902 -487.07519531 362.45556641 C-485.7663221 363.42967605 -484.46053607 364.40796065 -483.15917969 365.39208984 C-473.63376752 372.59127911 -463.59883793 378.51398177 -453 384 C-452.22462891 384.40138184 -451.44925781 384.80276367 -450.65039062 385.21630859 C-417.10009979 402.34644672 -376.0173834 409.29401031 -339 400 C-338.20706543 399.80132324 -337.41413086 399.60264648 -336.59716797 399.39794922 C-299.3779637 389.72168092 -270.1178532 369.20217098 -243.1875 342.4375 C-242.69935822 341.95471588 -242.21121643 341.47193176 -241.70828247 340.97451782 C-235.77277891 335.08847575 -230.20138959 329.02871577 -225.00268555 322.47412109 C-222.96346395 319.95486331 -220.82468351 317.56714584 -218.625 315.1875 C-213.06111746 309.06530398 -208.041938 302.55170822 -203 296 C-202.49452637 295.34612305 -201.98905273 294.69224609 -201.46826172 294.01855469 C-189.07909468 277.98642397 -177.08687609 261.67900072 -165.46337891 245.08398438 C-163.99600688 242.99431343 -162.52088211 240.91035153 -161.04296875 238.828125 C-155.95738877 231.66132249 -150.92184232 224.46344595 -145.96484375 217.20703125 C-145.40514893 216.38818954 -144.8454541 215.56934784 -144.26879883 214.72569275 C-137.98430743 205.52370681 -131.73354652 196.29905649 -125.5 187.0625 C-124.88294189 186.14847412 -124.26588379 185.23444824 -123.63012695 184.29272461 C-113.54531668 169.34593907 -103.58909732 154.31809728 -93.69189453 139.24661255 C-84.13984925 124.70485846 -74.46054852 110.25456562 -64.70462036 95.84893799 C-53.95801412 79.97560276 -43.38056959 63.99521981 -32.890625 47.95117188 C-26.1996277 37.73526451 -19.33131346 27.67829408 -12.23635864 17.7388916 C-9.69764831 14.16829168 -7.22158162 10.55472356 -4.75 6.9375 C-4.27949219 6.25107422 -3.80898438 5.56464844 -3.32421875 4.85742188 C-2.21509234 3.23900272 -1.10736247 1.6196266 0 0 Z M-890 273 C-890.495 273.99 -890.495 273.99 -891 275 C-800.58 275 -710.16 275 -617 275 C-646.03062792 241.13093409 -693.21972353 212.60503371 -738.1875 209.12890625 C-795.54470173 206.5000345 -848.81248167 234.5238857 -890 273 Z " fill="#45C9C2" transform="translate(955,29)"/>
<path d="M0 0 C7.45545176 7.30941234 13.8401173 14.89206313 19.39428711 23.73095703 C19.78310059 24.34519531 20.17191406 24.95943359 20.57250977 25.59228516 C30.40410408 41.39089159 36.10107743 58.48030706 39.39428711 76.73095703 C39.58764648 77.77123047 39.78100586 78.81150391 39.98022461 79.88330078 C41.78549615 96.65870143 41.3732829 114.30065477 37.39428711 130.73095703 C37.23863281 131.40916504 37.08297852 132.08737305 36.92260742 132.78613281 C33.84395639 145.83506588 28.27923905 156.37255796 22.39428711 168.73095703 C95.98428711 169.06095703 169.57428711 169.39095703 245.39428711 169.73095703 C242.39428711 173.73095703 239.39428711 177.73095703 236.39428711 181.73095703 C233.33864682 182.11036358 230.64571695 182.2303591 227.59017944 182.17591858 C226.67925053 182.17565861 225.76832162 182.17539863 224.8297888 182.17513078 C221.76415653 182.16965379 218.69947854 182.13573656 215.6340332 182.10229492 C213.44133196 182.09302494 211.24862192 182.08566491 209.0559082 182.08007812 C204.32658336 182.06489782 199.59751514 182.03805153 194.86829758 182.0028553 C187.38846986 181.94920115 179.90886175 181.93316906 172.42886353 181.92466736 C161.93895395 181.9102991 151.44909272 181.88985606 140.95922852 181.85571289 C139.9604679 181.85247768 139.9604679 181.85247768 138.9415303 181.84917711 C128.16148423 181.81330746 117.38171717 181.75024537 106.60184436 181.68062372 C95.5286495 181.61014718 84.45586803 181.5827191 73.38245451 181.58963197 C65.94856783 181.59209682 58.5170413 181.54628974 51.08362269 181.46505463 C46.4525693 181.42611123 41.82243692 181.43330228 37.19129944 181.45354462 C35.0470656 181.45375034 32.90273307 181.43515383 30.75885391 181.3961544 C19.34715682 180.83587598 19.34715682 180.83587598 9.21992874 185.10507011 C6.93766073 187.87536223 5.1899788 190.63233928 3.39428711 193.73095703 C-4.79023763 203.04117906 -14.7685065 210.76639885 -25.60571289 216.73095703 C-36.42672436 207.67664131 -46.51575471 197.51925135 -55.60571289 186.73095703 C-56.54016053 185.65781586 -57.47656234 184.58637493 -58.41430664 183.51611328 C-66.67340055 174.07841749 -74.67858806 164.44822198 -82.60571289 154.73095703 C-83.16822754 154.04324219 -83.73074219 153.35552734 -84.31030273 152.64697266 C-90.42957989 145.16529039 -96.4869916 137.64210775 -102.43798828 130.02587891 C-107.58022472 123.45902215 -112.8526739 116.9986858 -118.12915039 110.53955078 C-119.4361883 108.93860223 -120.73994645 107.33497727 -122.04321289 105.73095703 C-130.47333236 95.37395311 -139.05720854 85.21187554 -148.13696289 75.41845703 C-150.09540221 73.28648511 -151.98826037 71.12891103 -153.85571289 68.91845703 C-162.86576591 58.56555957 -172.8203439 49.19357336 -183.60571289 40.73095703 C-185.35602228 39.25215648 -187.10601497 37.77298101 -188.85571289 36.29345703 C-195.80323479 30.59266844 -203.54056674 24.76353011 -211.60571289 20.73095703 C-209.20233694 15.41181026 -205.30171199 11.19443136 -201.60571289 6.73095703 C-201.01145508 6.01037109 -200.41719727 5.28978516 -199.80493164 4.54736328 C-195.76799531 -0.2134375 -191.47591005 -4.36669103 -186.60571289 -8.26904297 C-185.85620361 -8.87039062 -185.85620361 -8.87039062 -185.09155273 -9.48388672 C-129.47482087 -53.54580536 -50.90705717 -48.83118551 0 0 Z " fill="#FBFDFD" transform="translate(501.605712890625,134.26904296875)"/>
<path d="M0 0 C11.66624999 9.39934834 23.6113561 19.34621376 33.20703125 30.890625 C35.17061934 33.20072864 37.22270851 35.4082568 39.29370117 37.62182617 C44.23899918 42.90917969 48.9914646 48.2824768 53.52734375 53.9296875 C55.44011126 56.3047827 57.3692584 58.66112289 59.31640625 61.0078125 C66.39650935 69.54177914 73.2989815 78.16532387 80 87 C90.62937585 100.90651782 101.45373817 114.6403464 112.52783203 128.19580078 C113.82271511 129.78273046 115.11290478 131.37348737 116.40234375 132.96484375 C127.79481384 147.1436967 127.79481384 147.1436967 140.3125 160.31030273 C142.0528284 162.05289719 143.64181057 163.87125925 145.23828125 165.74609375 C155.99500838 178.10326367 168.73030257 188.47109347 182 198 C182.96486328 198.69416016 182.96486328 198.69416016 183.94921875 199.40234375 C217.38975685 223.18994302 258.00966804 233.84945915 298.6796875 227.03125 C328.80136217 221.46420782 356.79566253 207.56927631 381 189 C381.58861816 188.55269531 382.17723633 188.10539063 382.78369141 187.64453125 C389.60658655 182.44405392 396.21728196 177.09021957 402.5234375 171.265625 C404.55404134 169.4079748 406.61402674 167.60758511 408.69921875 165.8125 C413.46921835 161.64793199 417.96320675 157.22833061 422.4375 152.75 C423.27716309 151.91025635 424.11682617 151.0705127 424.98193359 150.20532227 C429.99721068 145.14363457 434.70827598 140.04265337 439.0859375 134.41796875 C441.19807309 131.74978113 443.4492641 129.25682788 445.75 126.75 C449.16629301 123.00464199 452.16831575 119.20185404 455 115 C455.66 115.33 456.32 115.66 457 116 C450.68844192 126.50064531 443.92654499 136.43801044 436.4375 146.13330078 C435.0918417 147.88073682 433.76187613 149.6387507 432.4375 151.40234375 C416.19945521 172.95583634 397.17382896 194.40405331 375 210 C373.74460219 210.91119735 372.48940269 211.82266795 371.234375 212.734375 C334.56841657 238.99561935 290.66878197 252.48638502 245.5 245.8125 C186.21517291 235.93766215 134.15216201 194.87611405 95.84375 150.0625 C93.65203687 147.61075311 91.33932896 145.31114427 89 143 C85.53805934 139.57433716 82.26662999 136.0842976 79.1015625 132.38671875 C76.17879483 129.06736736 73.15038073 125.85071861 70.125 122.625 C66.21115988 118.45006689 62.31188986 114.26874557 58.5 110 C48.10255094 98.38225306 37.3275727 87.14091316 26.3034668 76.11816406 C24.29772641 74.1102101 22.30018314 72.09432344 20.30273438 70.078125 C13.17257171 62.91695853 5.96462494 56.23361665 -2 50 C-3.24502912 48.9659062 -4.48638954 47.92736605 -5.72265625 46.8828125 C-31.08377425 25.78954872 -64.11765536 8.56401444 -98 11 C-99.18207031 11.08121094 -100.36414063 11.16242188 -101.58203125 11.24609375 C-139.69798827 14.93228301 -172.24846332 37.03865394 -200 62 C-200.53786133 62.48146484 -201.07572266 62.96292969 -201.62988281 63.45898438 C-212.35788375 73.09938354 -223.03913679 83.07392463 -232.37109375 94.08984375 C-234.32237716 96.3780394 -236.34817687 98.5909906 -238.375 100.8125 C-243.10754303 106.05840363 -247.56065546 111.50583684 -252 117 C-253.68465026 119.06484622 -255.37369374 121.12604634 -257.0625 123.1875 C-257.81660156 124.10917969 -258.57070313 125.03085937 -259.34765625 125.98046875 C-259.89292969 126.64691406 -260.43820312 127.31335938 -261 128 C-261.66 127.67 -262.32 127.34 -263 127 C-233.30572899 67.96998255 -193.19235201 -4.10983163 -127.77734375 -28.75390625 C-81.7799526 -43.92781295 -36.9041614 -29.31326663 0 0 Z " fill="#85D7E5" transform="translate(310,179)"/>
<path d="M0 0 C6.51348958 6.51348958 11.79482253 14.07711786 14.8125 22.8125 C15.03679687 23.45960938 15.26109375 24.10671875 15.4921875 24.7734375 C19.21513677 38.08425614 17.58538358 53.74055422 11.19921875 65.87890625 C7.87992158 71.28840386 4.08188069 76.12659437 -0.1875 80.8125 C0.50214844 81.68390625 1.19179688 82.5553125 1.90234375 83.453125 C6.65421321 89.47046104 11.38375635 95.50270096 16 101.625 C16.73605469 102.60082031 17.47210938 103.57664062 18.23046875 104.58203125 C19.8125 106.8125 19.8125 106.8125 19.8125 107.8125 C15.11733354 108.08623157 10.42687711 108.28477019 5.72558594 108.41674805 C4.13036178 108.4717836 2.53568557 108.54665048 0.94238281 108.64233398 C-12.27260382 109.41555129 -12.27260382 109.41555129 -16.9609375 105.49072266 C-19.02288046 102.67868186 -20.63644446 99.93079002 -22.1875 96.8125 C-23.55205607 94.01818073 -23.55205607 94.01818073 -25.1875 91.8125 C-28.02706427 91.50969554 -30.31700839 91.48636061 -33.125 91.6875 C-46.9684049 92.14475894 -58.84013393 88.54787471 -69.796875 79.70703125 C-80.00011872 70.03449316 -85.62111488 58.12724436 -86.390625 44.11328125 C-86.57928687 28.06130064 -82.94614719 15.04433184 -71.63671875 3.13671875 C-51.22303453 -16.23511874 -22.34425365 -15.33429172 0 0 Z M-51.75 22.13671875 C-56.5854 27.77363886 -57.51011561 35.15895919 -57.40234375 42.34375 C-56.76301873 49.69017568 -54.59776733 55.76291716 -49.1875 60.8125 C-42.86752364 65.6162825 -35.86081424 65.73445015 -28.1875 64.8125 C-22.26201602 63.27091067 -18.75665361 59.87396621 -15.375 54.875 C-11.4175054 48.00145674 -11.25822461 40.05868195 -12.6171875 32.38671875 C-14.27992432 26.44397419 -17.33545317 21.66160977 -22.1875 17.8125 C-32.64982012 12.94858207 -43.23689498 14.19509532 -51.75 22.13671875 Z " fill="#45C9C2" transform="translate(259.1875,368.1875)"/>
<path d="M0 0 C6.12075186 4.74626723 9.74209016 11.14794055 11.2265625 18.7265625 C11.2265625 20.7065625 11.2265625 22.6865625 11.2265625 24.7265625 C0.9965625 24.7265625 -9.2334375 24.7265625 -19.7734375 24.7265625 C-20.7634375 22.4165625 -21.7534375 20.1065625 -22.7734375 17.7265625 C-25.89221706 16.16717272 -28.34599521 16.3657791 -31.7734375 16.7265625 C-34.01644385 18.79819879 -34.01644385 18.79819879 -34.7734375 21.7265625 C-33.98704952 24.62945755 -33.38111879 26.26884547 -30.953125 28.09765625 C-30.19257813 28.44957031 -29.43203125 28.80148437 -28.6484375 29.1640625 C-27.76027344 29.57527344 -26.87210937 29.98648438 -25.95703125 30.41015625 C-22.24124677 31.94662173 -18.48607069 33.34403265 -14.7109375 34.7265625 C-4.03264285 38.6461131 4.8038368 42.8784711 11.1640625 52.7265625 C13.76800711 59.91995949 13.51085003 69.60844685 10.6640625 76.6640625 C6.11251669 85.08521521 0.22261179 90.39660451 -8.7734375 93.7265625 C-14.30697217 95.34738201 -19.26915694 96.08563432 -25.0234375 96.0390625 C-26.13150757 96.03060303 -26.13150757 96.03060303 -27.26196289 96.02197266 C-38.75187639 95.77010477 -48.82735939 92.83432084 -57.5859375 85.1328125 C-63.75248801 78.59626896 -65.7734375 71.57062672 -65.7734375 62.7265625 C-55.8734375 62.7265625 -45.9734375 62.7265625 -35.7734375 62.7265625 C-34.4534375 65.3665625 -33.1334375 68.0065625 -31.7734375 70.7265625 C-28.71650428 72.25502911 -26.14359203 71.95898695 -22.7734375 71.7265625 C-20.37260312 70.36771134 -20.37260312 70.36771134 -18.7734375 68.7265625 C-18.47200834 65.38698942 -18.47200834 65.38698942 -19.7734375 61.7265625 C-24.53832453 57.82072962 -31.084894 56.24128867 -36.81640625 54.19116211 C-48.72142936 49.92865626 -58.58098278 45.96690453 -64.5859375 34.1640625 C-67.30635851 25.98716487 -66.78523283 16.78651362 -63.1484375 9.0078125 C-57.66203993 -0.09461984 -49.52426543 -4.22826105 -39.44921875 -6.88671875 C-25.62653201 -8.88445012 -11.90964698 -7.67510583 0 0 Z " fill="#45C9C2" transform="translate(350.7734375,364.2734375)"/>
<path d="M0 0 C1.26239502 0.00737183 1.26239502 0.00737183 2.55029297 0.01489258 C15.05007368 0.25066906 25.54008778 4.7457195 34.76953125 13.23828125 C43.62370193 22.8137693 47.6875 34.3787933 47.6875 47.3125 C46.56315528 62.8600793 41.75071203 73.36271669 30.6875 84.3125 C31.86505859 85.67181641 31.86505859 85.67181641 33.06640625 87.05859375 C49.6875 106.30615887 49.6875 106.30615887 49.6875 108.3125 C23.13636092 110.22178939 23.13636092 110.22178939 17.9296875 106.00390625 C15.71909837 103.18259504 14.17230042 100.56362262 12.6875 97.3125 C11.71163696 94.86518633 11.71163696 94.86518633 9.6875 93.3125 C6.69404754 92.91342643 3.7569 93.13760591 0.75 93.3125 C-13.55966257 93.71456293 -23.94274422 89.30677654 -34.5 79.6875 C-43.87293688 69.94039398 -46.72604035 57.65462997 -46.67822266 44.59033203 C-46.38647231 30.71211604 -40.57585292 19.71053707 -30.65234375 10.16796875 C-21.67793654 3.05136871 -11.29316143 -0.07768974 0 0 Z M-19.0859375 30.43359375 C-23.39640736 37.03657465 -24.0996515 45.51087586 -22.84375 53.171875 C-20.75379128 60.66846605 -17.4728825 65.85214047 -11.09375 70.33203125 C-5.32252726 73.508735 2.83196897 73.37565308 9.0390625 71.6640625 C15.31983148 68.82680393 19.73133131 63.92923934 22.5625 57.6875 C25.21281657 49.4984979 24.65592709 40.33114495 21.08984375 32.5390625 C17.66162169 27.09592441 12.81221048 23.25138764 6.6875 21.3125 C-4.44211236 20.0869601 -11.89570027 21.77719083 -19.0859375 30.43359375 Z " fill="#45C9C2" transform="translate(1131.3125,223.6875)"/>
<path d="M0 0 C59.73844178 0 59.73844178 0 70.875 10.3125 C78.39882051 18.43964573 79.47733847 27.27972356 79.2734375 37.9453125 C78.89955356 45.94494813 75.63360825 52.36416732 70.19921875 58.17578125 C63.31926654 63.88259774 55.23903646 67.14488849 46.359375 67.09765625 C45.39483398 67.09515869 44.43029297 67.09266113 43.43652344 67.09008789 C41.61169434 67.07643188 41.61169434 67.07643188 39.75 67.0625 C35.8725 67.041875 31.995 67.02125 28 67 C28 78.22 28 89.44 28 101 C18.76 101 9.52 101 0 101 C0 67.67 0 34.34 0 0 Z M28 24 C28 30.6 28 37.2 28 44 C30.536875 44.0825 33.07375 44.165 35.6875 44.25 C36.47729248 44.28641602 37.26708496 44.32283203 38.08081055 44.36035156 C41.90260839 44.42027101 43.63709783 44.23202728 46.95703125 42.109375 C49.60899593 39.3712088 49.95937334 38.53830322 50.25 34.6875 C49.984656 30.77367606 49.36680088 29.06807521 47 26 C43.20548348 23.47032232 40.18802503 23.77639908 35.8125 23.875 C33.234375 23.91625 30.65625 23.9575 28 24 Z " fill="#45C9C2" transform="translate(87,358)"/>
<path d="M0 0 C7.59 0 15.18 0 23 0 C23 31.68 23 63.36 23 96 C15.41 96 7.82 96 0 96 C-0.495 92.535 -0.495 92.535 -1 89 C-1.43570312 89.40992188 -1.87140625 89.81984375 -2.3203125 90.2421875 C-2.91585938 90.78101563 -3.51140625 91.31984375 -4.125 91.875 C-4.70507812 92.40867187 -5.28515625 92.94234375 -5.8828125 93.4921875 C-12.85249512 98.45583601 -21.86068693 97.64855084 -30 97 C-37.85799468 95.06842589 -44.21378479 89.91431321 -48.75 83.3125 C-54.8122674 72.68852644 -55.56158479 60.20493702 -53.30859375 48.3671875 C-50.45427425 38.07252887 -45.36298575 30.40437045 -36 25 C-28.37089853 21.86430999 -18.73403908 21.47855357 -10.83984375 24.015625 C-6.85440137 25.96432437 -4.15969334 27.84030666 -1 31 C-0.67 20.77 -0.34 10.54 0 0 Z M-28.3125 49.625 C-31.16869613 55.33739227 -31.89088347 61.16166751 -29.9375 67.3125 C-27.90731789 71.95560169 -24.52060925 74.73969537 -20 77 C-15.38108804 77.56350726 -11.90158688 77.4422879 -7.6875 75.375 C-3.22128731 71.42811436 -0.91514493 68.0390904 -0.0625 62.125 C0.23309165 57.21078884 -0.3765255 53.21629831 -3 49 C-5.74816648 46.06180073 -8.84868832 43.26246003 -12.953125 42.76171875 C-19.98315035 42.53455807 -23.5748535 44.247131 -28.3125 49.625 Z " fill="#45C9C2" transform="translate(1737,220)"/>
<path d="M0 0 C7.0638924 1.02220473 13.80491098 2.75766639 20.61962891 4.83300781 C27.46909593 6.89537156 34.38132523 8.67213545 41.3125 10.4375 C49.77653745 12.60164424 58.19661686 14.85604857 66.5625 17.375 C67.39499268 17.62564209 68.22748535 17.87628418 69.08520508 18.13452148 C74.70788444 19.85394222 74.70788444 19.85394222 77 21 C75.29901351 26.87613516 72.86018336 31.27963329 70 37 C180.385 37.495 180.385 37.495 293 38 C290 42 287 46 284 50 C280.94435971 50.37940654 278.25142984 50.49940207 275.19589233 50.44496155 C274.28496342 50.44470158 273.37403451 50.4444416 272.43550169 50.44417375 C269.36986942 50.43869676 266.30519143 50.40477953 263.23974609 50.37133789 C261.04704485 50.36206791 258.85433482 50.35470788 256.66162109 50.34912109 C251.93229625 50.33394079 247.20322803 50.3070945 242.47401047 50.27189827 C234.99418275 50.21824412 227.51457464 50.20221203 220.03457642 50.19371033 C209.54466684 50.17934207 199.05480561 50.15889903 188.56494141 50.12475586 C187.899101 50.12259905 187.23326059 50.12044225 186.54724319 50.11822008 C175.76719712 50.08235043 164.98743006 50.01928834 154.20755725 49.94966669 C143.13436239 49.87919015 132.06158092 49.85176207 120.98816741 49.85867494 C113.55428072 49.86113978 106.12275419 49.81533271 98.68933558 49.7340976 C94.05828219 49.6951542 89.42814981 49.70234525 84.79701233 49.72258759 C82.65277849 49.72279331 80.50844596 49.7041968 78.3645668 49.66519737 C66.80236289 48.9305673 66.80236289 48.9305673 56.74654007 53.49935722 C54.51069802 56.23389401 52.74942907 58.9423466 51 62 C50.01 62.495 50.01 62.495 49 63 C48.22398437 61.97003906 47.44796875 60.94007813 46.6484375 59.87890625 C40.28139988 51.46927272 33.77109374 43.21687961 27.02954102 35.10449219 C22.71336528 29.8992843 18.55245716 24.60161308 14.4609375 19.21875 C11.19794665 14.92886885 7.84389606 10.71003974 4.48950195 6.49145508 C1.10794203 2.21588406 1.10794203 2.21588406 0 0 Z " fill="#45C9C2" transform="translate(454,266)"/>
<path d="M0 0 C7.38897311 5.84738879 8.42073253 12.3765289 10.125 21.75 C1.875 21.75 -6.375 21.75 -14.875 21.75 C-15.865 19.77 -16.855 17.79 -17.875 15.75 C-21.18448074 13.47013549 -23.03729569 12.71714885 -27.0625 12.875 C-30.68031114 13.92617431 -30.68031114 13.92617431 -32.875 16.75 C-33.11253308 20.25788253 -33.11253308 20.25788253 -31.875 23.75 C-27.22380588 27.50898393 -22.17105341 29.26527575 -16.5625 31.1875 C-6.13517014 34.92472007 2.69406859 38.21322104 9.125 47.75 C12.55365166 56.09802144 11.56615153 63.07165855 8.30078125 71.20703125 C4.44469598 79.5469366 -1.69737984 82.17374731 -9.875 85.75 C-19.32846419 88.90115473 -32.77436212 87.89938857 -41.75390625 83.87890625 C-48.58448 80.24348118 -54.34059833 76.23826855 -56.91796875 68.69921875 C-58.875 61.02728873 -58.875 61.02728873 -58.875 57.75 C-50.625 57.75 -42.375 57.75 -33.875 57.75 C-32.885 60.06 -31.895 62.37 -30.875 64.75 C-28.40684508 67.21815492 -26.38927095 67.43814548 -22.98046875 67.7734375 C-19.56401628 67.73540649 -17.57283254 66.7898246 -14.875 64.75 C-13.53949153 61.90372409 -13.53949153 61.90372409 -13.875 58.75 C-16.79434732 53.99309396 -20.26115326 52.43489508 -25.375 50.75 C-26.81173626 50.24240662 -28.24793039 49.73327628 -29.68359375 49.22265625 C-30.74682861 48.85164795 -30.74682861 48.85164795 -31.83154297 48.47314453 C-42.53220841 44.68636185 -51.73805197 41.41904591 -56.875 30.75 C-59.12059494 24.01321519 -58.9751151 15.44451164 -56.375 8.8125 C-52.63006824 1.70639274 -46.33891063 -2.71508696 -38.875 -5.25 C-25.86658211 -8.60317536 -11.35788926 -7.12888794 0 0 Z " fill="#45C9C2" transform="translate(1245.875,230.25)"/>
<path d="M0 0 C105.6 0 211.2 0 320 0 C320 4.29 320 8.58 320 13 C214.4 13 108.8 13 0 13 C0 8.71 0 4.42 0 0 Z " fill="#45C9C2" transform="translate(43,508)"/>
<path d="M0 0 C52.76629213 0 52.76629213 0 63 9 C69.58470423 17.04618737 70.97892838 25.82869532 70 36 C67.52188653 45.45259777 63.04990128 50.64207648 54.828125 55.66796875 C47.59302188 59.07566235 40.85032735 59.26465475 33 59.125 C29.7 59.08375 26.4 59.0425 23 59 C23 69.56 23 80.12 23 91 C15.41 91 7.82 91 0 91 C0 60.97 0 30.94 0 0 Z M23 19 C23 25.93 23 32.86 23 40 C27.08375 40.061875 27.08375 40.061875 31.25 40.125 C32.10110352 40.14320801 32.95220703 40.16141602 33.82910156 40.18017578 C39.23690109 40.30214559 39.23690109 40.30214559 44 38 C46.11722045 34.27661231 46.98849883 31.66706791 47.0625 27.375 C45.75685152 23.22764599 43.75313116 21.05550943 40 19 C36.99994202 18.42521433 34.16472234 18.52137085 31.125 18.6875 C28.44375 18.790625 25.7625 18.89375 23 19 Z " fill="#45C9C2" transform="translate(1008,225)"/>
<path d="M0 0 C52.33587786 0 52.33587786 0 62 9 C67.68574495 14.99308251 69.57273925 21.26935722 69.5 29.3125 C69.49355469 30.05870605 69.48710938 30.80491211 69.48046875 31.57373047 C69.20294257 39.98898145 66.43635836 45.88833351 60.5 51.875 C49.47613707 60.51035929 36.2177295 59.35966611 23 59 C23 69.56 23 80.12 23 91 C15.41 91 7.82 91 0 91 C0 60.97 0 30.94 0 0 Z M23 19 C23 25.93 23 32.86 23 40 C25.701875 40.0825 28.40375 40.165 31.1875 40.25 C32.45049927 40.30462402 32.45049927 40.30462402 33.73901367 40.36035156 C37.63376616 40.41775669 39.5802348 40.25679753 42.98828125 38.171875 C45.6286713 35.32127914 45.96445302 33.4798842 46.25 29.625 C45.98179349 25.73600564 45.4129723 24.01621538 43 21 C39.250256 18.34393133 35.14562415 18.77481736 30.75 18.875 C26.91375 18.936875 26.91375 18.936875 23 19 Z " fill="#45C9C2" transform="translate(1297,225)"/>
<path d="M0 0 C8.25 0 16.5 0 25 0 C25.58007812 1.88460937 26.16015625 3.76921875 26.7578125 5.7109375 C27.34360578 7.60779194 27.92941552 9.50464133 28.515625 11.40136719 C29.1029567 13.30360655 29.68823722 15.20647885 30.2734375 17.109375 C33.37031602 27.12261556 36.65470764 37.06718713 40 47 C40.17317245 46.42592911 40.34634491 45.85185822 40.52476501 45.26039124 C42.32153326 39.30630642 44.12271606 33.35357027 45.92651367 27.40161133 C46.59985775 25.17767339 47.27206065 22.95338961 47.94311523 20.72875977 C48.9057183 17.5383167 49.87236687 14.34912423 50.83984375 11.16015625 C51.14091537 10.15912369 51.441987 9.15809113 51.75218201 8.12672424 C52.032397 7.20584518 52.312612 6.28496613 52.60131836 5.33618164 C52.97105019 4.11373497 52.97105019 4.11373497 53.34825134 2.86659241 C54 1 54 1 55 0 C56.78071246 -0.08726223 58.5648314 -0.10699041 60.34765625 -0.09765625 C61.42724609 -0.09443359 62.50683594 -0.09121094 63.61914062 -0.08789062 C65.32360352 -0.07532227 65.32360352 -0.07532227 67.0625 -0.0625 C68.77276367 -0.05573242 68.77276367 -0.05573242 70.51757812 -0.04882812 C73.34510351 -0.03699747 76.1725264 -0.0205141 79 0 C78.33334398 5.303501 76.71847022 10.00785703 74.90234375 15 C74.59205734 15.86540405 74.28177094 16.73080811 73.96208191 17.62243652 C72.95880242 20.41675385 71.94831534 23.20840087 70.9375 26 C70.25008913 27.90936155 69.5630778 29.81886699 68.87646484 31.72851562 C67.21658492 36.34110361 65.55080676 40.95153074 63.88238525 45.56103516 C63.09521386 47.73682329 62.30951937 49.91313345 61.52490234 52.08984375 C60.39380304 55.22736543 59.26060801 58.36410782 58.125 61.5 C57.81038818 62.36882812 57.49577637 63.23765625 57.17163086 64.1328125 C55.12308452 69.75383096 55.12308452 69.75383096 54 72 C44.43 72 34.86 72 25 72 C23.04707031 66.43125 23.04707031 66.43125 21.0546875 60.75 C19.99857549 57.74162253 18.94212003 54.73336614 17.88543701 51.72518921 C16.77951397 48.57654061 15.67434814 45.42763157 14.5703125 42.27832031 C7.96752165 23.42159769 7.96752165 23.42159769 0.96533203 4.7109375 C0 2 0 2 0 0 Z " fill="#45C9C2" transform="translate(1370,244)"/>
<path d="M0 0 C9.57 0 19.14 0 29 0 C29 33.33 29 66.66 29 101 C19.43 101 9.86 101 0 101 C0 67.67 0 34.34 0 0 Z " fill="#45C9C2" transform="translate(43,358)"/>
<path d="M0 0 C7.59 0 15.18 0 23 0 C23 5.94 23 11.88 23 18 C27.95 18 32.9 18 38 18 C38 24.27 38 30.54 38 37 C33.05 37 28.1 37 23 37 C23.07392222 41.37925445 23.15666404 45.75643409 23.26245117 50.13476562 C23.29573463 51.62456572 23.32375597 53.11449295 23.34643555 54.60449219 C23.37992071 56.74469252 23.43222789 58.88372419 23.48828125 61.0234375 C23.51446533 62.31169434 23.54064941 63.59995117 23.56762695 64.92724609 C23.78165161 66.44825928 23.78165161 66.44825928 24 68 C28.48418393 70.98945595 32.65341189 70.62259378 38 71 C38 77.27 38 83.54 38 90 C34.68659656 90.10893381 31.37684708 90.18775874 28.0625 90.25 C27.13630859 90.28351563 26.21011719 90.31703125 25.25585938 90.3515625 C17.99954817 90.45340546 11.66187209 89.28852148 6.11547852 84.30761719 C0.39324488 78.33799882 -0.30745279 71.58464574 -0.1953125 63.66015625 C-0.1924826 62.89319931 -0.18965271 62.12624237 -0.18673706 61.33604431 C-0.17563475 58.91136379 -0.15054967 56.48706691 -0.125 54.0625 C-0.1149573 52.4082085 -0.10583372 50.75391115 -0.09765625 49.09960938 C-0.07572817 45.06626077 -0.04126843 41.0331952 0 37 C-2.97 37 -5.94 37 -9 37 C-9 30.73 -9 24.46 -9 18 C-6.03 18 -3.06 18 0 18 C0 12.06 0 6.12 0 0 Z " fill="#45C9C2" transform="translate(1461,226)"/>
<path d="M0 0 C7.59 0 15.18 0 23 0 C23 5.94 23 11.88 23 18 C27.95 18 32.9 18 38 18 C38 24.27 38 30.54 38 37 C33.05 37 28.1 37 23 37 C23.140618 41.58354827 23.28726678 46.1667655 23.4375 50.75 C23.47681641 52.05195313 23.51613281 53.35390625 23.55664062 54.6953125 C23.59853516 55.94570313 23.64042969 57.19609375 23.68359375 58.484375 C23.72025146 59.63647461 23.75690918 60.78857422 23.79467773 61.97558594 C23.96560175 64.49331091 24.13548455 66.63557291 25 69 C27.56893838 70.28446919 29.76576337 70.32977144 32.625 70.5625 C34.39875 70.706875 36.1725 70.85125 38 71 C38 77.27 38 83.54 38 90 C14.32470198 90.98102064 14.32470198 90.98102064 7 85 C-0.06015714 77.93984286 -0.05309768 69.10207367 -0.09765625 59.65625 C-0.09472565 56.93742036 -0.0794205 54.21877307 -0.0625 51.5 C-0.05747533 50.09114742 -0.05291413 48.68229311 -0.04882812 47.2734375 C-0.0371003 43.84891362 -0.02068691 40.42447953 0 37 C-2.64 37 -5.28 37 -8 37 C-8 30.73 -8 24.46 -8 18 C-5.36 18 -2.72 18 0 18 C0 12.06 0 6.12 0 0 Z " fill="#45C9C2" transform="translate(1638,226)"/>
<path d="M0 0 C7.59 0 15.18 0 23 0 C23 24.09 23 48.18 23 73 C32.24 73 41.48 73 51 73 C51 78.94 51 84.88 51 91 C34.17 91 17.34 91 0 91 C0 60.97 0 30.94 0 0 Z " fill="#45C9C2" transform="translate(1574,225)"/>
<path d="M0 0 C7.59 0 15.18 0 23 0 C23 30.03 23 60.06 23 91 C15.41 91 7.82 91 0 91 C0 60.97 0 30.94 0 0 Z " fill="#45C9C2" transform="translate(970,225)"/>
<path d="M0 0 C12.50584292 10.18066936 23.85704114 26.25675634 28 42 C19.19803206 44.57657607 10.35757514 46.99726261 1.5 49.375 C0.38447754 49.67446533 -0.73104492 49.97393066 -1.88037109 50.2824707 C-4.14550738 50.89046385 -6.4106441 51.49845539 -8.67578125 52.10644531 C-13.78591983 53.48005777 -18.89372033 54.86211672 -24 56.25 C-24.86431641 56.48380371 -25.72863281 56.71760742 -26.61914062 56.95849609 C-27.44607422 57.18359863 -28.27300781 57.40870117 -29.125 57.640625 C-29.92421875 57.85783203 -30.7234375 58.07503906 -31.546875 58.29882812 C-33.27474694 58.79270235 -34.99303804 59.32072833 -36.703125 59.87304688 C-37.58484375 60.15728516 -38.4665625 60.44152344 -39.375 60.734375 C-40.16648437 60.99959961 -40.95796875 61.26482422 -41.7734375 61.53808594 C-44.220902 62.04582748 -45.65563479 61.79349804 -48 61 C-42.80647852 54.18637558 -37.56217235 47.42194582 -32.1875 40.75 C-27.89332786 35.41706035 -23.70070183 30.01723264 -19.5625 24.5625 C-13.23018624 16.2191188 -6.65230433 8.08946337 0 0 Z " fill="#49CAC4" transform="translate(503,137)"/>
<path d="M0 0 C7.0638924 1.02220473 13.80491098 2.75766639 20.61962891 4.83300781 C27.46909593 6.89537156 34.38132523 8.67213545 41.3125 10.4375 C49.77653745 12.60164424 58.19661686 14.85604857 66.5625 17.375 C67.39499268 17.62564209 68.22748535 17.87628418 69.08520508 18.13452148 C74.70788444 19.85394222 74.70788444 19.85394222 77 21 C74.41270247 30.57300086 68.68089285 38.73317986 62.80859375 46.5703125 C61.45079401 48.39439769 60.17283321 50.27834868 58.9375 52.1875 C56.2650163 56.06691182 53.15477744 59.50847666 50 63 C46.47281534 59.60322182 43.43572954 56.1034817 40.5 52.1875 C36.60299866 47.03725167 32.59171104 41.99678169 28.5 37 C23.7260035 31.16071433 19.06808262 25.25229559 14.49609375 19.25390625 C11.21542642 14.9570678 7.85420515 10.72308803 4.48974609 6.49169922 C1.10807615 2.2161523 1.10807615 2.2161523 0 0 Z " fill="#65D1D4" transform="translate(454,266)"/>
<path d="M0 0 C4.4827434 0.61244312 8.12766745 2.37501844 12.0625 4.5 C12.72080811 4.85457275 13.37911621 5.20914551 14.05737305 5.57446289 C24.46609665 11.32774433 33.34568921 18.90094367 42 27 C38.56176197 30.5707206 35.03224563 33.63142133 31.0625 36.625 C29.90573398 37.50322698 28.74950216 38.38215795 27.59375 39.26171875 C27.00078125 39.71208496 26.4078125 40.16245117 25.796875 40.62646484 C22.86339556 42.8688229 19.96246611 45.15206119 17.0625 47.4375 C16.48040771 47.89608398 15.89831543 48.35466797 15.29858398 48.82714844 C14.11808734 49.75722684 12.93766736 50.68740258 11.75732422 51.61767578 C10.02979098 52.97656619 8.29874535 54.33083709 6.56640625 55.68359375 C-2.38109114 62.67703999 -11.20520996 69.8156845 -20 77 C-21.36973552 74.26052896 -20.65141377 73.10044884 -19.8125 70.1796875 C-19.52930908 69.18122803 -19.24611816 68.18276855 -18.9543457 67.15405273 C-18.63941162 66.07196533 -18.32447754 64.98987793 -18 63.875 C-17.68184326 62.7600415 -17.36368652 61.64508301 -17.03588867 60.49633789 C-14.54445723 51.79194905 -11.98224737 43.10802819 -9.42480469 34.42285156 C-7.3843814 27.44734307 -5.55413612 20.44552759 -3.84375 13.3828125 C-2.71863861 8.87194924 -1.40584233 4.4305334 0 0 Z " fill="#4ACAC4" transform="translate(458,106)"/>
<path d="M0 0 C0.66 0.33 1.32 0.66 2 1 C2.54931641 2.94018555 2.54931641 2.94018555 2.9765625 5.44921875 C3.92066752 10.62707349 5.09106939 15.70936464 6.375 20.8125 C6.59486572 21.68994873 6.81473145 22.56739746 7.04125977 23.47143555 C8.48183349 29.14653371 10.11069548 34.72747036 11.89453125 40.3046875 C13.73998805 46.47359964 15.30439883 52.71733705 16.89428711 58.95629883 C17.25985718 60.38365356 17.25985718 60.38365356 17.6328125 61.83984375 C17.86387695 62.74202637 18.09494141 63.64420898 18.33300781 64.57373047 C18.87821078 66.55697612 19.54386971 68.50675852 20.2421875 70.44140625 C21.06598629 73.22278878 20.80378662 74.29788593 20 77 C19.00742187 76.18917969 18.01484375 75.37835938 16.9921875 74.54296875 C8.63188281 67.72495681 0.22011291 60.9826495 -8.28222656 54.34277344 C-10.02089438 52.98366698 -11.75701093 51.62137289 -13.4921875 50.2578125 C-14.07178223 49.80237061 -14.65137695 49.34692871 -15.24853516 48.87768555 C-16.40770069 47.96589699 -17.5662393 47.0533108 -18.72412109 46.13989258 C-21.77256216 43.73755573 -24.83521157 41.35699197 -27.921875 39.00390625 C-28.56253906 38.51148438 -29.20320313 38.0190625 -29.86328125 37.51171875 C-31.09026373 36.56925394 -32.3218224 35.63270692 -33.55859375 34.703125 C-36.52084498 32.41756519 -38.70712991 30.571968 -40 27 C-31.11428154 17.00356674 -19.31746374 10.02016184 -7.625 3.75 C-6.89361816 3.35506348 -6.16223633 2.96012695 -5.40869141 2.55322266 C-3.63956138 1.63401411 -1.82289887 0.80734449 0 0 Z " fill="#6AD2D6" transform="translate(349,105)"/>
<path d="M0 0 C0.18581141 7.36405059 -0.53688962 14.41073565 -1.49609375 21.70703125 C-1.64909439 22.90881516 -1.80209503 24.11059906 -1.95973206 25.34880066 C-2.44702738 29.17073416 -2.94177156 32.99165196 -3.4375 36.8125 C-3.92860859 40.62275863 -4.41804494 44.43321591 -4.90455627 48.24406433 C-5.20660656 50.60748558 -5.51139089 52.97055969 -5.81944275 55.33320618 C-6.74507786 62.54432199 -7.45903986 69.74986645 -8 77 C-8.66 77 -9.32 77 -10 77 C-10.57105469 75.89527344 -11.14210938 74.79054688 -11.73046875 73.65234375 C-16.91481714 63.68302898 -22.30498522 53.85643072 -27.87060547 44.09521484 C-34.45444686 32.50897348 -40.72643656 20.75636543 -47 9 C-43.38207767 6.58805178 -39.70736581 5.62536248 -35.5625 4.5 C-34.75135742 4.27932861 -33.94021484 4.05865723 -33.10449219 3.83129883 C-21.91792111 0.85035963 -11.60307289 -0.30895756 0 0 Z " fill="#5ACECE" transform="translate(401,95)"/>
<path d="M0 0 C15.76587641 -0.939688 31.29724489 2.38187406 46 8 C45.40922459 11.75636093 44.34024834 14.6017136 42.515625 17.9296875 C41.9990332 18.87835693 41.48244141 19.82702637 40.95019531 20.80444336 C40.38913086 21.81772705 39.82806641 22.83101074 39.25 23.875 C38.67088867 24.93275635 38.09177734 25.9905127 37.49511719 27.08032227 C32.94694829 35.3602748 28.29738022 43.58226159 23.62524414 51.79272461 C18.90696036 60.1042354 14.40545342 68.51921757 10 77 C9.34 77 8.68 77 8 77 C7.93530518 76.37174316 7.87061035 75.74348633 7.80395508 75.09619141 C6.52256232 62.73102622 5.18080627 50.37649305 3.6875 38.03515625 C3.57435959 37.09798767 3.46121918 36.16081909 3.34465027 35.19525146 C2.77776936 30.50718486 2.20542511 25.8198604 1.6262207 21.13330078 C1.4134459 19.38445571 1.20079396 17.63559569 0.98828125 15.88671875 C0.88841919 15.09290298 0.78855713 14.29908722 0.68566895 13.48121643 C0.1393119 8.94887839 -0.09576606 4.56535367 0 0 Z " fill="#4FCBC7" transform="translate(407,95)"/>
<path d="M0 0 C2.69542807 4.0431421 3.68795345 8.22617867 5 12.875 C5.2676416 13.8230249 5.5352832 14.7710498 5.81103516 15.74780273 C8.89628698 26.93112599 10.3090288 37.39478013 10 49 C-2.01092712 48.43039025 -13.83357393 47.13015077 -25.75 45.5625 C-29.1193269 45.12264094 -32.48916425 44.68693848 -35.859375 44.25390625 C-37.09476013 44.0932518 -37.09476013 44.0932518 -38.35510254 43.92935181 C-42.79346301 43.36355867 -47.22951931 42.86997505 -51.68554688 42.46435547 C-52.60934143 42.37959457 -53.53313599 42.29483368 -54.48492432 42.20750427 C-56.26619397 42.04848591 -58.04823507 41.89783656 -59.83099365 41.75648499 C-61.89461905 41.57331515 -63.94950345 41.29591365 -66 41 C-66.33 40.34 -66.66 39.68 -67 39 C-66.27224365 38.61368408 -65.5444873 38.22736816 -64.79467773 37.8293457 C-51.05741929 30.52788989 -37.36873866 23.17068047 -23.86254883 15.44702148 C-19.69958297 13.07089263 -15.5321879 10.72778724 -11.27734375 8.51953125 C-10.56811768 8.15142334 -9.8588916 7.78331543 -9.12817383 7.40405273 C-7.28054319 6.45490427 -5.42573378 5.51976492 -3.5703125 4.5859375 C-0.71064399 3.2007822 -0.71064399 3.2007822 0 0 Z " fill="#4DCBC6" transform="translate(532,181)"/>
<path d="M0 0 C0.75022883 15.89863159 -3.18914289 30.97795606 -8 46 C-11.97967307 44.76207322 -15.54925741 43.31274247 -19.203125 41.3125 C-20.17403076 40.78390381 -21.14493652 40.25530762 -22.14526367 39.71069336 C-23.16982666 39.14616455 -24.19438965 38.58163574 -25.25 38 C-26.85355347 37.12323608 -26.85355347 37.12323608 -28.48950195 36.22875977 C-31.66272222 34.49133208 -34.83189594 32.74673568 -38 31 C-38.83772949 30.53964355 -39.67545898 30.07928711 -40.53857422 29.60498047 C-52.77323059 22.87890479 -64.89260693 15.95194053 -77 9 C-77 8.67 -77 8.34 -77 8 C-38.5165498 3.09496115 -38.5165498 3.09496115 -21.0625 1.1875 C-19.95938477 1.0639917 -18.85626953 0.9404834 -17.71972656 0.81323242 C-11.77345856 0.17945362 -5.97988612 -0.11847532 0 0 Z " fill="#57CDCC" transform="translate(542,236)"/>
<path d="M0 0 C4.1030387 2.32276306 7.76372554 5.06336163 11.4375 8 C12.68742036 8.99098587 13.93742263 9.98186845 15.1875 10.97265625 C15.82171875 11.47684082 16.4559375 11.98102539 17.109375 12.50048828 C19.47162363 14.37405893 21.84491128 16.2332619 24.21899414 18.09179688 C30.29854168 22.85248249 36.337804 27.66161745 42.36132812 32.49291992 C48.8707692 37.70884011 55.43160615 42.85863779 62 48 C59.02778852 52.04249689 55.67265813 55.06784575 51.6875 58.0625 C51.14416016 58.48337891 50.60082031 58.90425781 50.04101562 59.33789062 C46.20017187 62.26273623 42.23190885 64.67754559 38 67 C30.44777948 60.68079507 23.54916788 53.73369975 16.67041016 46.69873047 C15.30023113 45.30532128 13.90882925 43.93281102 12.51171875 42.56640625 C9.46751854 39.43396835 7.74644756 37.3416696 7.5234375 32.90234375 C7.07286565 27.64959641 5.62111952 22.93467738 4 17.9375 C2.05810496 11.92403729 0.58309304 6.30469351 0 0 Z " fill="#74D4DC" transform="translate(438,284)"/>
<path d="M0 0 C3.96 0 7.92 0 12 0 C15.04675597 3.41446789 16.81130615 6.08314007 19 10 C20.28203296 11.9794271 21.59685723 13.93365795 22.92114258 15.88500977 C24.96839708 18.90925064 26.98060944 21.95708272 29 25 C29.33 16.75 29.66 8.5 30 0 C33.96 0 37.92 0 42 0 C42 15.51 42 31.02 42 47 C29 47 29 47 26.05541992 44.796875 C25.45318604 43.79140625 24.85095215 42.7859375 24.23046875 41.75 C23.55048828 40.6671875 22.87050781 39.584375 22.16992188 38.46875 C21.18862305 36.75171875 21.18862305 36.75171875 20.1875 35 C19.48021076 33.84111509 18.7686508 32.68482531 18.05273438 31.53125 C16.32644795 28.71282318 14.65739359 25.85948266 13 23 C12.67 30.92 12.34 38.84 12 47 C8.04 47 4.08 47 0 47 C0 31.49 0 15.98 0 0 Z " fill="#0F539F" transform="translate(1735,352)"/>
<path d="M0 0 C3.96 0 7.92 0 12 0 C15.04675597 3.41446789 16.81130615 6.08314007 19 10 C20.28203296 11.9794271 21.59685723 13.93365795 22.92114258 15.88500977 C24.96839708 18.90925064 26.98060944 21.95708272 29 25 C29.33 16.75 29.66 8.5 30 0 C33.96 0 37.92 0 42 0 C42 15.51 42 31.02 42 47 C29 47 29 47 26.05541992 44.796875 C25.45318604 43.79140625 24.85095215 42.7859375 24.23046875 41.75 C23.55048828 40.6671875 22.87050781 39.584375 22.16992188 38.46875 C21.18862305 36.75171875 21.18862305 36.75171875 20.1875 35 C19.48021076 33.84111509 18.7686508 32.68482531 18.05273438 31.53125 C16.32644795 28.71282318 14.65739359 25.85948266 13 23 C12.67 30.92 12.34 38.84 12 47 C8.04 47 4.08 47 0 47 C0 31.49 0 15.98 0 0 Z " fill="#0F539F" transform="translate(1358,352)"/>
<path d="M0 0 C12 0 12 0 14.92285156 2.29492188 C15.5722168 3.34228516 16.22158203 4.38964844 16.890625 5.46875 C17.25097839 6.02365112 17.61133179 6.57855225 17.98260498 7.15026855 C19.11325908 8.91101676 20.18058461 10.70154748 21.25 12.5 C22.01042347 13.70689281 22.77471771 14.91135594 23.54296875 16.11328125 C25.41674098 19.04737383 27.20022408 22.0145897 29 25 C29.33 16.75 29.66 8.5 30 0 C33.96 0 37.92 0 42 0 C42 15.51 42 31.02 42 47 C29 47 29 47 26.05541992 44.796875 C25.45318604 43.79140625 24.85095215 42.7859375 24.23046875 41.75 C23.55048828 40.6671875 22.87050781 39.584375 22.16992188 38.46875 C21.18862305 36.75171875 21.18862305 36.75171875 20.1875 35 C19.48021076 33.84111509 18.7686508 32.68482531 18.05273438 31.53125 C16.32644795 28.71282318 14.65739359 25.85948266 13 23 C12.67 30.92 12.34 38.84 12 47 C8.04 47 4.08 47 0 47 C0 31.49 0 15.98 0 0 Z " fill="#0F539F" transform="translate(1410,352)"/>
<path d="M0 0 C12 0 12 0 14.60546875 1.9140625 C15.12753906 2.80867188 15.64960937 3.70328125 16.1875 4.625 C16.79980469 5.61371094 17.41210938 6.60242188 18.04296875 7.62109375 C18.68878906 8.73613281 19.33460937 9.85117187 20 11 C21.2009974 12.88174037 22.42302083 14.74842803 23.6496582 16.61352539 C25.45893338 19.39237055 27.22513977 22.19904869 29 25 C29.33 16.75 29.66 8.5 30 0 C33.96 0 37.92 0 42 0 C42 15.51 42 31.02 42 47 C30 47 30 47 27.39453125 45.0859375 C26.87246094 44.19132812 26.35039063 43.29671875 25.8125 42.375 C24.89404297 40.89193359 24.89404297 40.89193359 23.95703125 39.37890625 C23.31121094 38.26386719 22.66539063 37.14882813 22 36 C20.7990026 34.11825963 19.57697917 32.25157197 18.3503418 30.38647461 C16.54106662 27.60762945 14.77486023 24.80095131 13 22 C12.67 30.25 12.34 38.5 12 47 C8.04 47 4.08 47 0 47 C0 31.49 0 15.98 0 0 Z " fill="#0F539F" transform="translate(1115,352)"/>
<path d="M0 0 C3.980625 -0.061875 7.96125 -0.12375 12.0625 -0.1875 C13.92467163 -0.22846802 13.92467163 -0.22846802 15.82446289 -0.27026367 C23.31733759 -0.32653738 28.55201106 0.0824709 34.4375 5.0625 C36.66948728 9.25863608 36.84166886 13.33669958 36 18 C34.59765625 20.30859375 34.59765625 20.30859375 33 22 C32.34 22 31.68 22 31 22 C31 22.66 31 23.32 31 24 C31.61875 24.268125 32.2375 24.53625 32.875 24.8125 C35 26 35 26 37 29 C37.67377709 34.06116277 37.80185639 38.54477914 35.3125 43.0625 C30.91498266 46.74690642 27.02790051 47.24683014 21.38671875 47.1953125 C20.26225342 47.19031738 19.13778809 47.18532227 17.97924805 47.18017578 C16.56297119 47.16196777 15.14669434 47.14375977 13.6875 47.125 C9.170625 47.08375 4.65375 47.0425 0 47 C0 31.49 0 15.98 0 0 Z M12 10 C12 12.97 12 15.94 12 19 C13.423125 19.061875 14.84625 19.12375 16.3125 19.1875 C17.11300781 19.22230469 17.91351562 19.25710938 18.73828125 19.29296875 C21.06772528 19.17920516 21.06772528 19.17920516 22.8046875 17.65234375 C24.28129719 15.98365419 24.28129719 15.98365419 23.8125 13.375 C23.25355766 10.83447997 23.25355766 10.83447997 21 10 C17.99525503 9.86440682 15.00931153 9.95700984 12 10 Z M12 28 C12 30.97 12 33.94 12 37 C13.79133978 37.05391993 15.58313899 37.09275571 17.375 37.125 C18.37273438 37.14820313 19.37046875 37.17140625 20.3984375 37.1953125 C23.16262173 37.27216848 23.16262173 37.27216848 25 35 C24.83557723 31.93008319 24.83557723 31.93008319 24 29 C21.47524538 27.73762269 19.68799534 27.90143596 16.875 27.9375 C15.96492187 27.94652344 15.05484375 27.95554687 14.1171875 27.96484375 C13.06917969 27.98224609 13.06917969 27.98224609 12 28 Z " fill="#0F539F" transform="translate(970,352)"/>
<path d="M0 0 C6.2678414 2.81264837 10.65445748 7.9669266 13.33203125 14.21875 C15.81250053 21.88162832 14.74968598 29.09425696 11.45703125 36.34375 C8.11520116 41.52934842 3.88725506 44.42668441 -1.85546875 46.59375 C-10.15032892 48.2808402 -17.12300903 47.7394027 -24.54296875 43.34375 C-29.82143403 38.67883327 -33.19278985 33.97990993 -33.87890625 26.85546875 C-33.96185316 18.73496653 -33.9757601 12.06292956 -28.15234375 5.86328125 C-20.11795579 -1.34652479 -10.33745089 -2.66772926 0 0 Z M-18.54296875 13.34375 C-21.58418517 17.85313987 -22.47519662 22.03640723 -21.54296875 27.34375 C-19.62762827 31.40427181 -18.07760707 33.02094951 -14.23046875 35.34375 C-9.78695882 36.54876964 -7.73762542 36.16407271 -3.54296875 34.34375 C-0.5187209 31.79701497 1.2740548 29.94348693 1.73046875 25.953125 C2.05839785 19.36227993 2.05839785 19.36227993 -0.91796875 13.71875 C-4.56245023 10.42136199 -6.57304482 10.04334377 -11.51171875 10.1328125 C-14.55912577 10.449274 -16.22541574 11.35727599 -18.54296875 13.34375 Z " fill="#0F539F" transform="translate(1047.54296875,352.65625)"/>
<path d="M0 0 C5.25495606 3.18687658 9.2224526 7.87816813 12 13.3125 C13.6953847 22.91967994 12.83167974 30.64293296 7.375 38.75 C2.12222411 43.88604754 -3.84509199 46.25644691 -11.125 46.75 C-18.34565071 46.61578716 -24.67385637 44.27649476 -29.9296875 39.27734375 C-35.11837714 33.16114223 -36.16953691 26.5976124 -35.875 18.71875 C-35.03496186 12.53846937 -32.99146221 7.69166635 -28.20703125 3.5859375 C-20.07952255 -2.00918268 -9.3923647 -4.19698186 0 0 Z M-20.4375 12.5 C-23.319973 17.30412167 -23.90403791 20.89015363 -23 26.41796875 C-22.12045831 29.67349459 -21.01447066 31.31948637 -18.4375 33.5 C-14.12454717 35.53458862 -11.24113798 35.72396468 -6.625 34.4375 C-1.99929339 31.62579598 -0.89902926 29.28018428 0.4375 24.125 C0.6270203 18.62891138 -0.97662151 15.12783603 -4.625 11.0625 C-9.96313286 8.09687063 -15.76512531 8.36161099 -20.4375 12.5 Z " fill="#0F539F" transform="translate(1714.4375,353.5)"/>
<path d="M0 0 C5.89945599 3.39194422 9.37536233 8.68858699 11.5 15.0625 C12.17465145 23.04771878 12.14388492 30.28160609 7.5 37.0625 C2.89873657 42.36268952 -2.73096242 45.45043101 -9.69140625 46.34375 C-16.6022395 46.63220217 -23.25201398 45.04573433 -28.8125 40.8125 C-34.22472175 35.27441263 -36.60114538 29.58388168 -36.8125 21.875 C-36.71404548 15.15324154 -35.22020254 10.03257501 -30.62890625 5.01953125 C-22.04280546 -2.85241371 -10.92692749 -4.80851134 0 0 Z M-22.5 14.0625 C-24.54978758 18.65053518 -24.9701663 22.65200111 -23.375 27.4375 C-21.94665038 30.57487929 -20.68403634 32.51596806 -17.5 34.0625 C-13.59272257 35.27809742 -11.748056 35.14238244 -7.8125 33.875 C-3.47806908 31.50333025 -2.04006835 29.68270505 -0.5 25.0625 C0.08533357 18.97503091 -1.06549566 15.92804781 -4.5 11.0625 C-7.40897198 8.6729873 -10.74978325 8.57042183 -14.46875 8.6953125 C-18.09535312 9.35089076 -20.42170154 11.15152822 -22.5 14.0625 Z " fill="#0F539F" transform="translate(1255.5,353.9375)"/>
<path d="M0 0 C5.4336386 3.29733624 10.08533853 7.92273635 11.9921875 14.11328125 C13.58120514 21.96079819 13.03408133 29.12514524 9.0546875 36.1171875 C4.83670875 41.84304271 -0.56641579 45.06319925 -7.5625 46.3125 C-15.30601606 46.9369771 -22.12127395 45.4980585 -28.375 40.6875 C-34.02985201 35.30881518 -35.78657771 29.44022126 -36.0625 21.75 C-35.81573497 14.45766798 -33.86111628 10.12191989 -29.3125 4.5625 C-20.98567517 -2.25035668 -10.23073815 -4.75622551 0 0 Z M-20.5625 12.3125 C-23.444973 17.11662167 -24.02903791 20.70265363 -23.125 26.23046875 C-22.24545831 29.48599459 -21.13947066 31.13198637 -18.5625 33.3125 C-14.22512119 35.35861131 -11.37658521 35.55272186 -6.75 34.1875 C-2.91099363 31.92926096 -1.20098286 30.67069219 -0.02734375 26.3359375 C0.90158471 21.08704075 0.19334806 17.63352236 -2.26171875 12.94140625 C-3.85780975 10.9426977 -5.17894083 10.21630311 -7.5625 9.3125 C-12.79091808 8.89754618 -16.45993252 8.67879737 -20.5625 12.3125 Z " fill="#0F539F" transform="translate(1495.5625,353.6875)"/>
<path d="M0 0 C3.815625 -0.061875 7.63125 -0.12375 11.5625 -0.1875 C13.34636108 -0.22846802 13.34636108 -0.22846802 15.16625977 -0.27026367 C22.89168346 -0.33074556 27.88872967 0.29454754 33.875 5.5 C36.99338195 9.16868465 37.29817673 12.18686797 37.2109375 16.94140625 C36.87656501 20.20463408 35.83882194 22.30306116 34 25 C32.02779746 26.37411605 30.02994599 27.71271718 28 29 C28.84884766 30.44632812 28.84884766 30.44632812 29.71484375 31.921875 C30.45598689 33.19776699 31.19685807 34.47381699 31.9375 35.75 C32.31068359 36.38421875 32.68386719 37.0184375 33.06835938 37.671875 C34.89799541 40.83665084 36.10541362 43.42165447 37 47 C32.38 47 27.76 47 23 47 C22.37351562 45.85660156 21.74703125 44.71320313 21.1015625 43.53515625 C20.27633002 42.0441112 19.45079342 40.55323445 18.625 39.0625 C18.2125 38.30775391 17.8 37.55300781 17.375 36.77539062 C16.97539063 36.05673828 16.57578125 35.33808594 16.1640625 34.59765625 C15.79748535 33.93258057 15.4309082 33.26750488 15.05322266 32.58227539 C14.0768444 30.83143994 14.0768444 30.83143994 12 30 C12 35.61 12 41.22 12 47 C8.04 47 4.08 47 0 47 C0 31.49 0 15.98 0 0 Z M12 11 C12 14.3 12 17.6 12 21 C18.39825263 21.47326369 18.39825263 21.47326369 24 19 C24.41666667 16 24.41666667 16 24 13 C22.18806994 10.75675164 22.18806994 10.75675164 19.6171875 10.8046875 C18.71226563 10.82789063 17.80734375 10.85109375 16.875 10.875 C15.26625 10.91625 13.6575 10.9575 12 11 Z " fill="#0F539F" transform="translate(1275,352)"/>
<path d="M0 0 C27.34375 0 27.34375 0 33.4375 5 C36.55736171 8.99342299 36.44516468 13.32105667 36.42578125 18.19921875 C35.7430285 22.69035383 33.29804666 25.06935232 30 28 C29.34 28.66 28.68 29.32 28 30 C28.6496875 31.14339844 29.299375 32.28679687 29.96875 33.46484375 C30.81261164 34.95566598 31.65635558 36.44655484 32.5 37.9375 C32.92925781 38.69224609 33.35851563 39.44699219 33.80078125 40.22460938 C34.20683594 40.94326172 34.61289063 41.66191406 35.03125 42.40234375 C35.59682617 43.39995728 35.59682617 43.39995728 36.17382812 44.41772461 C37 46 37 46 37 47 C32.0588159 47.94887604 27.89485958 48.30220765 23 47 C18.70438377 43.00007191 16.25986379 37.32084331 14 32 C14 31.34 14 30.68 14 30 C13.34 30 12.68 30 12 30 C12 35.61 12 41.22 12 47 C8.04 47 4.08 47 0 47 C0 31.49 0 15.98 0 0 Z M12 11 C12 14.3 12 17.6 12 21 C13.423125 21.061875 14.84625 21.12375 16.3125 21.1875 C17.11300781 21.22230469 17.91351562 21.25710938 18.73828125 21.29296875 C21.06241929 21.17579064 21.06241929 21.17579064 22.80859375 19.68359375 C24.32923282 17.91614976 24.32923282 17.91614976 23.75 14.875 C23.29066476 12.12209159 23.29066476 12.12209159 22 11 C18.66381769 10.85742811 15.34024394 10.95771843 12 11 Z " fill="#0F539F" transform="translate(1070,352)"/>
<path d="M0 0 C4.62 0 9.24 0 14 0 C17.53633239 8.60449194 20.70530245 17.32937482 23.85595703 26.08032227 C24.75953315 28.58896739 25.66671187 31.09629013 26.57421875 33.60351562 C27.14865037 35.19523569 27.72287686 36.78702981 28.296875 38.37890625 C28.70459137 39.50529259 28.70459137 39.50529259 29.12054443 40.6544342 C31 45.88491727 31 45.88491727 31 47 C26.71 47 22.42 47 18 47 C17.01 44.69 16.02 42.38 15 40 C9.72 40 4.44 40 -1 40 C-1.99 42.31 -2.98 44.62 -4 47 C-8.29 47 -12.58 47 -17 47 C-11.63279129 31.21155105 -6.25248265 15.46557795 0 0 Z M7 16 C6.16235732 17.95649397 5.33000941 19.91525556 4.5 21.875 C4.0359375 22.96554687 3.571875 24.05609375 3.09375 25.1796875 C1.87947544 27.80661929 1.87947544 27.80661929 2 30 C5.3 30 8.6 30 12 30 C11.54857225 28.22739369 11.08859477 26.4569632 10.625 24.6875 C10.36976562 23.70136719 10.11453125 22.71523438 9.8515625 21.69921875 C9.08086826 18.8194184 9.08086826 18.8194184 7 16 Z " fill="#0F539F" transform="translate(1580,352)"/>
<path d="M0 0 C4.29 0 8.58 0 13 0 C15.85791762 6.9677549 18.40813623 13.96874677 20.75 21.125 C21.06582031 22.08148438 21.38164063 23.03796875 21.70703125 24.0234375 C22.47415429 26.34805276 23.23843282 28.67355994 24 31 C26.87725285 24.04506357 29.40949743 17.02709368 31.75 9.875 C32.22373047 8.44027344 32.22373047 8.44027344 32.70703125 6.9765625 C33.47414934 4.65196221 34.23748052 2.32611279 35 0 C39.29 0 43.58 0 48 0 C46.74659746 6.10652291 45.15074593 11.83977205 42.99609375 17.68359375 C42.71274673 18.46517349 42.42939972 19.24675323 42.13746643 20.05201721 C41.24267754 22.51577424 40.34008347 24.97658939 39.4375 27.4375 C38.82829117 29.11375615 38.219563 30.79018707 37.61132812 32.46679688 C33.18910274 44.62179453 33.18910274 44.62179453 32 47 C27.05 47 22.1 47 17 47 C14.3059096 41.09378118 11.89360959 35.19307196 9.765625 29.0625 C9.48273621 28.25635254 9.19984741 27.45020508 8.90838623 26.61962891 C8.3185036 24.93632823 7.73040359 23.25240186 7.14404297 21.56787109 C6.24211947 18.97736553 5.33439749 16.38894605 4.42578125 13.80078125 C3.85122773 12.15897128 3.27699695 10.51704833 2.703125 8.875 C2.43131409 8.09906494 2.15950317 7.32312988 1.87945557 6.52368164 C0 1.11655485 0 1.11655485 0 0 Z " fill="#0F539F" transform="translate(1512,352)"/>
<path d="M0 0 C10.23 0 20.46 0 31 0 C31 3.3 31 6.6 31 10 C25.06 10 19.12 10 13 10 C13 12.97 13 15.94 13 19 C17.62 19 22.24 19 27 19 C27 22.3 27 25.6 27 29 C22.38 29 17.76 29 13 29 C13 34.94 13 40.88 13 47 C8.71 47 4.42 47 0 47 C0 31.49 0 15.98 0 0 Z " fill="#0F539F" transform="translate(1182,352)"/>
<path d="M0 0 C12.21 0 24.42 0 37 0 C37 3.3 37 6.6 37 10 C32.71 10 28.42 10 24 10 C24 22.21 24 34.42 24 47 C20.04 47 16.08 47 12 47 C12 34.79 12 22.58 12 10 C8.04 10 4.08 10 0 10 C0 6.7 0 3.4 0 0 Z " fill="#0F539F" transform="translate(1615,352)"/>
<path d="M0 0 C3.71369087 4.49266018 7.04065233 9.22446133 10.375 14 C10.98351807 14.86995605 11.59203613 15.73991211 12.21899414 16.63623047 C17.28703761 23.91272055 22.23050496 31.26834685 27.11669922 38.66796875 C30.9817201 44.51472495 34.95509577 50.27623652 39 56 C38.505 56.99 38.505 56.99 38 58 C37.26136719 57.23816406 36.52273438 56.47632813 35.76171875 55.69140625 C29.17971818 48.96719859 22.38018791 42.85288419 15 37 C14.14019531 36.27296875 13.28039062 35.5459375 12.39453125 34.796875 C4.65163724 28.25487297 -3.88587262 21.55706369 -13 17 C-11.46203092 13.56546802 -9.4264398 10.85610724 -7.0625 7.9375 C-6.37285156 7.08027344 -5.68320312 6.22304687 -4.97265625 5.33984375 C-3.38385308 3.45530297 -1.77941245 1.70131911 0 0 Z " fill="#77D5DE" transform="translate(303,138)"/>
<path d="M0 0 C3.96 0 7.92 0 12 0 C12 15.51 12 31.02 12 47 C8.04 47 4.08 47 0 47 C0 31.49 0 15.98 0 0 Z " fill="#0F539F" transform="translate(1659,352)"/>
<path d="M0 0 C3.96 0 7.92 0 12 0 C12 15.51 12 31.02 12 47 C8.04 47 4.08 47 0 47 C0 31.49 0 15.98 0 0 Z " fill="#0F539F" transform="translate(1336,352)"/>
<path d="M0 0 C2.79422895 1.36303851 3.91843084 2.58087909 6 5 C7.35624248 9.06872744 7.66606438 12.75021964 7 17 C5.29459077 20.0735547 3.18841729 22.40579136 0 24 C-11.24705946 25.02705184 -11.24705946 25.02705184 -15.625 22.25 C-19.30176315 18.7667507 -19.8819793 17.21954724 -20.375 12.125 C-20.26235068 7.81214034 -18.82617939 5.29720929 -16 2 C-11.16599098 -1.09845071 -5.5191232 -0.73686558 0 0 Z " fill="#45C9C2" transform="translate(1527,293)"/>
<path d="M0 0 C3.27459047 1.60857076 5.14391724 2.91044012 7.375 5.75 C8.82399408 10.96637867 8.70053657 14.64896519 6.25 19.375 C3.4876589 22.59773128 1.62766071 23.78855163 -2.5859375 24.3359375 C-8.55010773 24.4194693 -12.40447009 24.24202761 -17 20 C-19.34781141 17.01187638 -19.41825081 13.78088812 -19.3203125 10.03125 C-18.78643864 6.64570842 -17.19273902 4.55819552 -15 2 C-10.36178 -0.93151567 -5.29969207 -0.62890702 0 0 Z " fill="#45C9C2" transform="translate(1791,293)"/>
</svg>
